<?xml version="1.0" standalone="no"?>
<!DOCTYPE svg PUBLIC "-//W3C//DTD SVG 20010904//EN"
 "http://www.w3.org/TR/2001/REC-SVG-20010904/DTD/svg10.dtd">
<svg version="1.0" xmlns="http://www.w3.org/2000/svg"
 width="630.000000pt" height="630.000000pt" viewBox="0 0 630.000000 630.000000"
 preserveAspectRatio="xMidYMid meet">
<metadata>
Created by potrace 1.14, written by Peter Selinger 2001-2017
</metadata>
<g transform="translate(0.000000,630.000000) scale(0.100000,-0.100000)"
fill="#000000" stroke="none">
<path d="M979 6146 c-2 -2 -24 -7 -49 -11 -64 -9 -184 -50 -262 -90 -214 -108
-387 -307 -468 -540 -52 -150 -50 -45 -47 -2380 1 -1194 6 -2183 10 -2200 56
-221 133 -364 272 -501 54 -53 156 -134 169 -134 5 0 20 -9 36 -20 44 -31 177
-81 270 -101 81 -17 195 -18 2240 -18 2299 0 2197 -2 2345 46 67 21 172 73
242 120 66 43 196 170 241 234 50 74 110 200 139 294 l28 90 3 2160 c3 1644 1
2180 -9 2245 -56 400 -361 717 -764 796 -58 11 -444 13 -2231 14 -1188 0
-2163 -2 -2165 -4z"/>
</g>
</svg>
